<svg id="svg" xmlns="http://www.w3.org/2000/svg" xmlns:xlink="http://www.w3.org/1999/xlink" width="400" height="90.94224924012158" viewBox="0, 0, 400,90.94224924012158"><g id="svgg"><path id="path0" d="M192.602 0.703 C 192.318 1.103,191.888 1.492,191.648 1.569 C 191.409 1.645,191.035 2.078,190.819 2.531 C 190.573 3.048,190.265 3.342,189.995 3.319 C 189.739 3.298,189.524 3.481,189.468 3.769 C 189.416 4.036,189.178 4.474,188.939 4.742 C 188.700 5.009,187.462 7.272,186.188 9.769 C 184.914 12.267,183.585 14.800,183.234 15.398 C 182.884 15.996,182.513 16.961,182.411 17.543 C 182.273 18.328,182.123 18.584,181.830 18.535 C 181.613 18.498,181.365 18.580,181.281 18.717 C 181.196 18.854,181.324 18.970,181.566 18.973 C 181.909 18.978,181.833 19.126,181.222 19.642 C 180.706 20.077,180.225 20.874,179.816 21.970 C 179.475 22.886,178.755 24.438,178.216 25.420 C 177.394 26.918,177.263 27.343,177.399 28.070 C 177.552 28.883,177.523 28.936,176.927 28.936 C 176.437 28.936,176.292 29.057,176.292 29.464 C 176.292 29.755,176.141 30.165,175.956 30.376 C 175.229 31.206,171.604 40.306,171.250 42.188 C 171.174 42.589,170.861 43.300,170.553 43.768 C 170.246 44.237,169.883 45.319,169.747 46.172 C 169.611 47.026,169.358 47.901,169.185 48.118 C 168.685 48.741,168.113 49.888,167.776 50.942 C 167.604 51.477,167.305 52.160,167.110 52.460 C 166.907 52.771,166.817 53.253,166.899 53.581 C 166.999 53.979,166.895 54.292,166.561 54.593 C 166.296 54.833,166.078 55.259,166.078 55.539 C 166.077 55.819,165.902 56.377,165.690 56.778 C 164.766 58.524,162.918 64.073,162.918 65.101 C 162.918 65.405,162.813 65.653,162.685 65.653 C 162.427 65.653,162.206 66.397,161.487 69.666 C 159.880 76.978,160.144 80.168,162.665 83.876 C 162.898 84.218,163.649 85.375,164.333 86.447 C 167.060 90.715,168.715 91.531,172.716 90.586 C 173.546 90.389,174.851 90.109,175.616 89.962 C 177.376 89.624,179.670 88.151,183.219 85.079 C 198.989 71.428,201.526 69.375,207.763 65.211 C 211.874 62.467,213.155 61.762,212.921 62.372 C 211.458 66.184,212.360 72.368,214.954 76.312 C 220.330 84.486,227.610 86.466,235.423 81.879 C 236.670 81.147,238.347 80.205,239.149 79.786 C 240.533 79.063,240.887 78.870,241.884 78.296 C 242.119 78.162,242.474 77.985,242.675 77.903 C 242.875 77.822,244.188 77.204,245.593 76.531 C 246.997 75.858,248.912 74.942,249.848 74.495 C 250.784 74.048,251.742 73.572,251.976 73.437 C 252.210 73.302,252.593 73.082,252.827 72.948 C 253.061 72.814,253.526 72.594,253.860 72.460 C 254.195 72.325,254.742 72.065,255.076 71.882 C 255.410 71.698,256.318 71.366,257.094 71.144 C 258.723 70.677,258.881 70.426,258.499 68.910 C 257.045 63.136,250.801 59.770,245.631 61.973 C 244.649 62.391,241.950 63.285,239.634 63.959 C 235.430 65.182,232.284 66.284,227.756 68.120 C 224.915 69.271,224.569 69.231,224.810 67.781 C 225.150 65.740,230.785 53.046,231.656 52.359 C 231.855 52.202,232.802 51.946,233.760 51.790 C 237.579 51.170,243.236 50.008,246.858 49.102 C 248.959 48.576,251.120 48.146,251.661 48.146 C 252.875 48.146,252.958 47.632,252.037 45.816 C 251.704 45.158,251.430 44.370,251.430 44.064 C 251.425 41.798,246.532 39.576,243.832 40.613 C 242.195 41.242,239.757 41.534,239.757 41.101 C 239.757 40.869,239.374 40.835,238.176 40.964 C 237.307 41.057,236.596 41.068,236.596 40.989 C 236.596 40.909,237.304 38.995,238.170 36.734 C 240.079 31.750,240.601 29.918,240.986 26.863 C 241.240 24.848,241.353 24.491,241.795 24.321 C 250.154 21.103,259.179 18.381,260.842 18.577 C 262.374 18.757,262.414 18.629,261.660 15.993 C 260.421 11.661,257.134 9.240,252.489 9.240 C 250.374 9.240,249.970 9.180,249.970 8.863 C 249.970 8.451,245.924 8.414,245.671 8.824 C 245.604 8.932,245.395 8.892,245.206 8.736 C 244.937 8.512,244.863 8.530,244.863 8.817 C 244.863 9.381,243.829 9.556,243.455 9.055 C 243.264 8.798,243.075 8.729,242.969 8.878 C 242.874 9.012,242.359 9.272,241.824 9.457 C 241.289 9.642,240.158 10.119,239.311 10.516 C 237.131 11.540,235.381 11.321,234.578 9.922 C 234.064 9.027,233.751 9.060,233.566 10.030 C 233.346 11.186,232.389 13.123,232.036 13.127 C 231.869 13.129,231.733 13.287,231.733 13.479 C 231.733 13.671,231.514 13.897,231.246 13.982 C 230.979 14.067,230.760 14.245,230.760 14.377 C 230.760 14.510,230.644 14.546,230.501 14.459 C 230.359 14.371,230.051 14.473,229.816 14.685 C 229.498 14.973,226.884 16.046,226.448 16.067 C 225.468 16.115,224.646 16.882,224.785 17.620 C 224.915 18.314,224.838 18.512,224.267 18.962 L 223.597 19.489 224.152 19.907 C 224.779 20.380,224.438 20.912,223.283 21.264 C 222.400 21.533,222.645 21.845,224.064 22.257 C 226.639 23.006,226.661 23.142,225.049 28.328 C 224.716 29.398,223.576 33.064,222.516 36.474 C 221.455 39.884,220.415 43.003,220.204 43.404 C 219.993 43.805,219.820 44.225,219.819 44.336 C 219.817 44.687,216.417 52.336,215.586 53.860 C 215.149 54.663,214.718 55.647,214.628 56.049 C 213.908 59.266,213.009 61.426,213.009 59.939 C 213.009 59.605,212.907 59.331,212.782 59.331 C 212.657 59.331,212.028 59.005,211.384 58.606 C 209.498 57.438,203.781 55.209,202.656 55.203 C 200.017 55.189,194.622 57.359,183.015 63.105 C 175.509 66.821,175.226 66.995,175.897 67.485 C 176.261 67.752,176.165 67.900,175.022 68.832 C 174.316 69.409,173.531 70.051,173.277 70.259 C 172.838 70.619,172.823 70.603,172.984 69.944 C 173.598 67.423,180.939 48.698,184.914 39.514 C 186.477 35.903,188.231 31.790,188.811 30.373 C 190.650 25.890,195.922 15.600,198.244 11.963 C 199.992 9.226,199.757 7.758,197.301 6.066 C 196.764 5.697,196.640 5.504,194.813 2.203 C 193.508 -0.155,193.310 -0.290,192.602 0.703 M156.375 3.236 C 155.685 3.477,155.478 3.729,155.138 4.742 C 154.677 6.116,149.390 18.360,147.106 23.343 C 145.096 27.730,143.400 31.862,142.216 35.258 C 140.881 39.088,140.835 39.149,139.217 39.149 C 137.704 39.149,132.778 39.764,131.629 40.097 L 130.857 40.320 131.168 39.309 C 131.339 38.753,132.795 34.851,134.403 30.638 C 136.012 26.426,137.575 22.213,137.877 21.277 C 138.179 20.340,138.693 19.112,139.020 18.546 C 139.780 17.233,139.297 15.033,137.838 13.159 C 137.589 12.840,137.386 12.324,137.386 12.012 C 137.386 11.244,137.023 11.093,133.396 10.361 C 127.499 9.169,125.959 9.625,124.836 12.892 C 124.492 13.893,123.466 16.298,122.555 18.237 C 110.200 44.534,106.670 56.840,106.405 74.529 C 106.373 76.669,106.259 78.830,106.151 79.331 C 105.864 80.664,106.612 80.582,107.259 79.210 L 107.746 78.176 107.640 79.757 C 107.451 82.582,108.039 84.338,108.910 83.550 C 109.682 82.850,110.586 83.052,110.987 84.012 C 111.346 84.871,111.786 85.077,112.256 84.608 C 112.434 84.429,112.635 84.541,112.923 84.980 C 113.149 85.326,113.427 85.551,113.539 85.482 C 113.652 85.412,113.800 85.567,113.867 85.826 C 114.058 86.554,116.361 85.312,117.230 84.012 C 118.043 82.797,120.564 74.599,122.539 66.748 C 124.268 59.875,126.141 53.214,126.425 52.930 C 126.758 52.597,132.230 51.384,134.902 51.051 C 137.993 50.666,138.060 50.710,137.546 52.804 C 136.857 55.615,136.130 59.917,136.229 60.596 C 136.283 60.964,136.220 61.301,136.088 61.344 C 135.935 61.396,135.932 61.572,136.081 61.838 C 136.414 62.433,135.636 67.578,134.447 72.645 C 133.906 74.952,133.532 77.058,133.617 77.325 C 133.883 78.162,134.434 77.860,134.987 76.574 C 135.408 75.596,135.565 75.419,135.737 75.727 C 135.890 76.000,135.788 76.350,135.394 76.902 C 134.836 77.683,134.235 79.061,134.148 79.757 C 134.120 79.991,134.299 80.115,134.650 80.102 C 135.266 80.081,135.397 80.903,134.960 82.051 C 134.639 82.896,135.056 82.861,136.274 81.939 C 137.575 80.954,137.748 81.013,137.769 82.444 C 137.783 83.422,137.913 83.799,138.407 84.293 L 139.027 84.913 140.213 84.364 C 140.865 84.062,141.533 83.837,141.698 83.863 C 141.863 83.889,141.943 83.765,141.875 83.588 C 141.709 83.156,142.637 82.188,143.217 82.188 C 143.771 82.188,144.067 81.802,143.692 81.571 C 143.530 81.470,143.720 81.225,144.174 80.949 C 144.587 80.699,144.924 80.290,144.924 80.041 C 144.924 79.793,145.141 79.393,145.407 79.152 C 146.254 78.386,149.536 67.834,152.092 57.658 C 153.005 54.025,154.245 49.976,154.626 49.386 C 154.834 49.064,157.907 48.930,159.757 49.164 C 161.173 49.342,160.497 44.197,159.059 43.854 C 158.707 43.771,158.310 43.618,158.176 43.516 C 158.043 43.413,157.660 43.291,157.325 43.245 C 156.479 43.128,156.435 42.386,157.167 40.548 C 157.500 39.711,157.948 38.316,158.163 37.447 C 158.553 35.872,160.739 29.470,162.938 23.465 C 164.350 19.608,166.518 14.402,167.384 12.791 C 169.109 9.581,167.080 6.244,161.771 3.559 C 160.352 2.842,157.917 2.696,156.375 3.236 M384.578 3.374 C 384.372 3.707,382.419 4.620,381.912 4.620 C 381.712 4.620,381.484 4.725,381.404 4.853 C 381.325 4.982,380.607 5.379,379.809 5.738 C 379.012 6.096,378.359 6.498,378.359 6.633 C 378.359 6.978,377.587 7.521,377.082 7.530 C 376.832 7.535,376.657 7.725,376.657 7.991 C 376.657 8.342,376.521 8.417,376.048 8.327 C 375.517 8.225,375.375 8.354,374.943 9.331 C 374.603 10.100,374.261 10.499,373.855 10.601 C 371.399 11.217,361.338 25.411,355.429 36.596 C 345.815 54.792,343.273 69.106,348.423 76.054 C 349.189 77.087,350.478 78.918,351.287 80.122 C 354.304 84.610,356.212 85.674,361.824 85.996 C 371.932 86.578,380.682 81.423,394.407 66.804 C 399.968 60.882,400.271 59.398,396.684 55.677 C 392.564 51.403,390.499 51.634,382.006 57.321 C 379.799 58.798,376.626 61.073,374.955 62.376 C 366.875 68.674,361.352 70.629,356.612 68.869 C 353.479 67.706,353.125 66.115,354.755 60.519 C 360.108 42.145,376.391 20.262,385.211 19.588 C 388.386 19.345,388.968 19.660,388.443 21.337 C 388.304 21.781,388.365 21.884,388.765 21.884 C 389.207 21.884,389.231 21.957,388.997 22.578 C 387.967 25.306,391.300 24.528,396.757 20.768 C 400.630 18.098,400.607 18.171,398.450 15.351 C 397.874 14.598,396.599 12.778,395.618 11.307 C 391.615 5.305,389.506 3.482,386.264 3.222 C 385.277 3.142,384.688 3.196,384.578 3.374 M334.339 4.563 C 331.438 5.345,327.013 9.588,325.713 12.835 C 325.358 13.722,324.748 14.812,324.358 15.257 C 323.520 16.211,323.502 16.328,324.112 16.880 C 324.870 17.566,324.967 18.463,324.370 19.270 C 324.007 19.762,323.894 20.165,324.001 20.590 C 324.086 20.930,324.029 21.353,323.871 21.543 C 322.941 22.664,325.366 23.182,326.983 22.207 C 329.272 20.827,330.208 20.613,330.962 21.294 C 331.542 21.819,331.443 22.090,328.445 28.207 C 322.912 39.493,318.840 50.983,317.802 58.237 C 316.768 65.465,316.729 66.223,317.377 66.649 C 317.735 66.885,316.586 68.536,314.869 70.251 C 313.987 71.133,312.693 72.590,311.994 73.490 C 311.295 74.390,310.272 75.502,309.720 75.960 C 308.802 76.723,308.740 76.846,308.992 77.400 C 309.144 77.733,309.208 78.237,309.134 78.519 C 309.027 78.929,309.153 79.086,309.758 79.297 C 310.175 79.442,310.517 79.612,310.517 79.675 C 310.517 80.179,309.871 80.711,308.946 80.970 C 307.777 81.297,307.473 81.700,308.389 81.706 C 309.387 81.713,309.739 82.127,308.989 82.412 C 307.007 83.165,310.494 83.972,317.100 84.288 L 320.401 84.447 324.517 83.095 C 331.471 80.811,334.588 79.973,336.778 79.799 L 338.845 79.635 338.919 78.609 C 339.293 73.461,336.808 68.862,333.437 68.462 C 329.553 68.001,329.637 68.216,331.177 62.695 C 335.990 45.448,341.773 29.855,346.409 21.628 C 347.129 20.350,347.733 18.982,347.751 18.588 C 347.828 16.908,348.078 16.755,351.705 16.168 C 353.292 15.911,354.155 15.883,354.955 16.062 C 357.045 16.531,357.277 16.151,356.478 13.564 C 355.158 9.291,351.858 6.475,346.261 4.845 C 343.680 4.094,336.694 3.928,334.339 4.563 M47.052 4.909 C 46.784 5.059,46.152 5.505,45.647 5.900 C 44.521 6.779,42.729 7.373,42.349 6.993 C 42.039 6.684,42.021 6.696,39.039 9.362 C 34.994 12.977,33.064 14.921,32.292 16.156 C 31.196 17.909,28.223 21.845,27.729 22.196 C 27.500 22.359,27.240 22.785,27.152 23.142 C 27.063 23.500,26.717 24.117,26.383 24.515 C 26.049 24.912,25.771 25.440,25.766 25.689 C 25.757 26.201,25.067 27.520,25.054 27.052 C 25.036 26.398,24.539 26.804,23.960 27.946 C 23.627 28.604,23.160 29.206,22.923 29.283 C 22.467 29.430,21.884 30.467,21.884 31.131 C 21.884 31.348,21.611 31.783,21.277 32.097 C 20.942 32.411,20.669 32.855,20.669 33.084 C 20.669 33.313,20.474 33.551,20.235 33.613 C 19.791 33.729,17.576 37.922,16.990 39.757 C 16.819 40.292,16.523 40.862,16.332 41.023 C 16.140 41.185,15.955 41.585,15.918 41.914 C 15.796 43.030,14.090 45.744,13.349 46.003 C 12.972 46.134,12.595 46.461,12.510 46.729 C 12.424 46.997,12.064 47.344,11.709 47.500 C 8.581 48.875,6.858 50.556,9.534 49.624 C 11.047 49.096,11.182 49.592,9.726 50.334 C 8.548 50.935,8.482 51.173,9.544 50.985 L 10.334 50.846 9.537 51.246 C 8.976 51.527,8.760 51.790,8.807 52.133 C 8.859 52.501,8.548 52.804,7.540 53.370 C 5.907 54.286,5.706 54.830,6.918 55.058 C 7.863 55.235,8.014 55.582,7.356 56.063 C 7.004 56.320,6.975 56.493,7.189 57.062 C 7.355 57.501,7.370 58.052,7.232 58.582 C 7.072 59.198,7.100 59.464,7.338 59.609 C 8.340 60.216,8.334 60.162,7.641 62.115 C 7.014 63.880,6.105 65.417,6.087 64.742 C 6.073 64.228,5.593 64.406,5.593 64.924 C 5.593 65.191,5.483 65.410,5.350 65.410 C 4.894 65.410,5.105 65.912,5.653 66.132 C 5.974 66.261,6.050 66.361,5.836 66.374 C 5.312 66.404,4.586 67.987,4.767 68.706 C 4.878 69.149,4.818 69.301,4.531 69.301 C 3.958 69.301,3.326 70.716,3.281 72.099 C 3.259 72.769,3.114 73.555,2.958 73.846 C 2.802 74.137,2.675 74.504,2.675 74.660 C 2.675 74.817,2.354 75.618,1.962 76.439 C 1.188 78.061,-0.000 81.229,-0.000 81.671 C 0.000 82.208,0.432 81.934,0.734 81.206 C 1.202 80.076,2.418 78.504,2.693 78.674 C 2.992 78.858,2.825 79.481,2.025 81.164 C 1.241 82.815,1.377 83.191,2.730 83.105 L 3.769 83.040 3.741 83.951 C 3.710 84.965,4.141 85.155,4.999 84.506 C 5.658 84.008,5.975 84.045,6.999 84.742 C 9.884 86.702,10.814 85.261,17.584 68.328 C 23.380 53.834,22.670 54.954,26.056 54.954 C 26.845 54.954,29.094 54.786,31.053 54.580 C 33.013 54.375,34.753 54.259,34.921 54.323 C 35.159 54.415,35.196 55.611,35.088 59.743 C 34.757 72.406,36.346 77.790,41.117 80.170 C 47.926 83.566,48.388 83.463,48.390 78.555 C 48.391 75.117,49.034 70.233,50.570 62.006 C 51.834 55.230,52.011 54.506,52.463 54.253 C 53.006 53.950,55.627 54.613,56.712 55.329 C 58.604 56.577,58.972 56.034,58.106 53.270 C 57.498 51.332,56.995 50.513,55.558 49.119 C 53.792 47.406,53.653 47.012,54.079 44.919 C 54.276 43.952,54.931 40.207,55.536 36.596 C 58.529 18.710,58.232 14.725,53.436 8.389 C 50.843 4.963,48.868 3.887,47.052 4.909 M103.830 5.852 C 102.827 5.958,99.380 6.222,96.170 6.439 C 82.493 7.362,78.243 8.358,71.125 12.311 C 64.787 15.830,61.159 18.780,64.377 17.797 C 65.260 17.527,65.233 17.569,63.526 19.114 C 61.725 20.744,61.467 21.208,62.151 21.591 C 62.390 21.725,62.558 22.185,62.589 22.788 C 62.680 24.574,63.361 25.183,66.850 26.600 C 69.369 27.623,70.644 27.506,76.046 25.757 C 83.844 23.233,84.119 23.339,82.587 28.281 C 82.122 29.778,81.666 31.386,81.572 31.854 C 81.478 32.322,80.204 36.147,78.742 40.353 C 76.133 47.856,74.850 52.049,74.053 55.684 C 73.833 56.687,73.317 58.602,72.906 59.939 C 71.285 65.215,70.062 72.219,70.760 72.219 C 70.894 72.219,71.006 72.027,71.010 71.793 C 71.017 71.396,71.034 71.396,71.273 71.806 C 71.413 72.047,71.517 72.703,71.504 73.265 C 71.491 73.826,71.474 74.614,71.467 75.015 C 71.446 76.176,72.148 82.850,72.321 83.130 C 72.407 83.269,72.628 83.325,72.813 83.254 C 73.014 83.177,73.278 83.392,73.474 83.794 C 73.947 84.765,74.251 84.752,75.230 83.720 C 75.876 83.038,76.106 82.908,76.107 83.222 C 76.108 83.456,76.227 83.647,76.370 83.647 C 76.514 83.647,76.404 83.936,76.127 84.288 C 75.520 85.060,75.502 85.251,76.019 85.449 C 76.561 85.657,77.007 85.233,77.892 83.665 C 78.306 82.930,79.329 81.665,80.164 80.854 C 81.995 79.077,82.261 78.440,84.350 70.857 C 86.219 64.074,88.485 57.400,93.137 44.985 C 97.699 32.808,98.169 31.468,99.566 26.642 C 100.184 24.510,100.918 22.357,101.200 21.857 C 101.560 21.216,101.671 20.703,101.576 20.120 L 101.442 19.292 107.560 17.978 C 112.940 16.822,114.015 16.663,116.474 16.660 L 119.271 16.657 119.350 15.959 C 119.452 15.066,118.532 11.638,117.803 10.197 C 115.955 6.544,111.213 5.070,103.830 5.852 M305.410 5.852 C 304.407 5.958,300.960 6.222,297.751 6.439 C 284.073 7.362,279.823 8.358,272.705 12.311 C 266.368 15.830,262.739 18.780,265.958 17.797 C 266.841 17.527,266.814 17.569,265.106 19.114 C 263.305 20.744,263.047 21.208,263.732 21.591 C 263.971 21.725,264.139 22.185,264.170 22.788 C 264.261 24.574,264.942 25.183,268.431 26.600 C 270.950 27.623,272.224 27.506,277.626 25.757 C 285.424 23.233,285.699 23.339,284.167 28.281 C 283.703 29.778,283.246 31.386,283.152 31.854 C 283.059 32.322,281.785 36.147,280.322 40.353 C 277.714 47.856,276.431 52.049,275.633 55.684 C 275.413 56.687,274.897 58.602,274.486 59.939 C 272.866 65.215,271.642 72.219,272.340 72.219 C 272.474 72.219,272.587 72.027,272.591 71.793 C 272.598 71.396,272.615 71.396,272.853 71.806 C 272.993 72.047,273.097 72.703,273.084 73.265 C 273.071 73.826,273.055 74.614,273.048 75.015 C 273.026 76.176,273.729 82.850,273.902 83.130 C 273.988 83.269,274.209 83.325,274.393 83.254 C 274.595 83.177,274.858 83.392,275.054 83.794 C 275.527 84.765,275.832 84.752,276.811 83.720 C 277.456 83.038,277.686 82.908,277.688 83.222 C 277.689 83.456,277.807 83.647,277.951 83.647 C 278.094 83.647,277.985 83.936,277.708 84.288 C 277.100 85.060,277.082 85.251,277.599 85.449 C 278.141 85.657,278.587 85.233,279.472 83.665 C 279.887 82.930,280.910 81.665,281.745 80.854 C 283.575 79.077,283.842 78.440,285.931 70.857 C 287.799 64.074,290.066 57.400,294.717 44.985 C 299.280 32.808,299.749 31.468,301.147 26.642 C 301.764 24.510,302.499 22.357,302.780 21.857 C 303.140 21.216,303.252 20.703,303.157 20.120 L 303.023 19.292 309.141 17.978 C 314.520 16.822,315.596 16.663,318.055 16.660 L 320.851 16.657 320.931 15.959 C 321.033 15.066,320.112 11.638,319.383 10.197 C 317.535 6.544,312.794 5.070,305.410 5.852 M235.623 10.091 C 235.623 10.292,235.733 10.456,235.866 10.456 C 236.000 10.456,236.109 10.292,236.109 10.091 C 236.109 9.891,236.000 9.726,235.866 9.726 C 235.733 9.726,235.623 9.891,235.623 10.091 M38.532 28.936 C 38.356 30.207,37.941 32.669,37.611 34.407 C 37.280 36.146,36.933 38.254,36.839 39.093 C 36.631 40.956,36.654 40.941,32.996 41.488 C 29.746 41.974,29.584 41.915,30.373 40.530 C 30.691 39.971,31.631 38.254,32.461 36.715 C 34.858 32.274,38.571 26.316,38.792 26.559 C 38.825 26.596,38.708 27.666,38.532 28.936 M223.273 40.782 C 223.131 41.155,222.949 41.861,222.868 42.353 C 222.787 42.845,222.508 43.502,222.250 43.812 C 221.672 44.505,221.641 44.281,222.150 43.092 C 222.363 42.595,222.699 41.658,222.896 41.009 C 223.093 40.361,223.317 39.892,223.393 39.968 C 223.469 40.044,223.415 40.410,223.273 40.782 M217.248 55.352 C 216.623 56.805,215.957 58.322,215.769 58.723 L 215.426 59.453 215.586 58.607 C 215.754 57.727,217.535 53.362,217.948 52.821 C 218.535 52.051,218.297 52.914,217.248 55.352 M8.484 57.933 C 7.731 59.023,7.696 59.049,7.902 58.359 C 8.118 57.636,8.482 57.143,8.800 57.143 C 8.927 57.143,8.785 57.498,8.484 57.933 M319.846 63.891 C 319.742 65.722,319.588 66.614,319.334 66.869 C 319.012 67.193,318.987 67.138,319.112 66.383 C 319.189 65.915,319.382 64.574,319.541 63.404 C 319.928 60.563,320.027 60.722,319.846 63.891 M317.979 63.647 C 317.918 63.881,317.868 63.690,317.868 63.222 C 317.868 62.754,317.918 62.562,317.979 62.796 C 318.040 63.030,318.040 63.413,317.979 63.647 M317.740 65.957 C 317.682 66.258,317.635 66.012,317.635 65.410 C 317.635 64.809,317.682 64.562,317.740 64.863 C 317.798 65.164,317.798 65.657,317.740 65.957 M318.469 66.930 C 318.412 67.231,318.364 66.985,318.364 66.383 C 318.364 65.781,318.412 65.535,318.469 65.836 C 318.527 66.137,318.527 66.629,318.469 66.930 " stroke="none" fill="#d2d2d2" fill-rule="evenodd"></path></g></svg>