<svg id="svg" xmlns="http://www.w3.org/2000/svg" xmlns:xlink="http://www.w3.org/1999/xlink" width="400" height="168.125" viewBox="0, 0, 400,168.125"><g id="svgg"><path id="path0" d="M158.594 2.532 C 157.305 3.901,156.250 5.289,156.250 5.616 C 156.250 5.943,155.828 6.049,155.313 5.851 C 154.673 5.606,154.375 5.886,154.375 6.732 C 154.375 7.414,153.963 8.314,153.460 8.732 C 152.956 9.149,150.738 13.051,148.530 17.402 C 146.322 21.753,143.781 26.690,142.883 28.374 C 141.985 30.058,141.250 32.089,141.250 32.886 C 141.250 33.985,140.997 34.239,140.204 33.934 C 139.429 33.637,139.256 33.789,139.537 34.520 C 139.755 35.089,139.413 35.962,138.731 36.579 C 138.080 37.169,137.224 38.672,136.829 39.919 C 136.434 41.167,135.158 43.921,133.993 46.039 C 132.828 48.157,131.875 50.618,131.875 51.508 C 131.875 52.529,131.529 53.125,130.938 53.125 C 130.422 53.125,130.000 53.433,130.000 53.810 C 130.000 54.187,128.977 56.648,127.726 59.279 C 125.722 63.492,121.804 73.671,120.830 77.188 C 120.640 77.875,119.954 79.581,119.305 80.979 C 118.656 82.376,118.125 84.136,118.125 84.889 C 118.125 85.643,117.437 87.593,116.595 89.223 C 114.090 94.076,112.486 98.222,112.871 98.845 C 113.070 99.167,112.866 99.872,112.417 100.412 C 111.968 100.953,111.280 102.277,110.887 103.354 C 110.495 104.431,109.150 108.088,107.899 111.481 C 106.648 114.873,105.625 118.188,105.625 118.847 C 105.625 119.505,105.239 120.667,104.766 121.428 C 101.338 126.955,100.075 145.412,102.768 150.625 C 110.923 166.412,114.246 168.867,124.682 166.814 C 133.985 164.984,132.972 165.678,158.810 143.429 C 174.347 130.050,180.079 125.622,190.625 118.849 C 199.324 113.262,198.854 113.703,198.410 111.535 C 197.954 109.309,195.021 107.455,186.555 104.042 C 176.776 100.100,172.876 101.188,141.902 116.498 C 128.905 122.922,127.965 123.503,129.266 124.308 C 129.859 124.674,129.211 125.544,126.913 127.468 C 125.169 128.928,123.868 129.744,124.023 129.280 C 133.735 100.102,157.220 45.561,168.643 25.654 C 173.779 16.703,173.896 15.400,169.890 11.703 C 168.184 10.128,166.113 7.234,164.757 4.531 C 162.133 -0.700,161.753 -0.823,158.594 2.532 M70.938 6.711 C 69.906 7.281,68.641 7.821,68.125 7.910 C 66.386 8.211,59.985 11.971,60.312 12.499 C 60.490 12.787,59.790 13.209,58.755 13.436 C 57.721 13.663,56.875 14.108,56.875 14.425 C 56.875 14.741,56.429 15.000,55.883 15.000 C 55.338 15.000,54.573 15.844,54.184 16.875 C 53.794 17.906,53.257 18.750,52.990 18.750 C 50.776 18.750,40.071 31.787,30.770 45.810 C 10.293 76.683,-2.224 111.285,0.570 129.295 C 1.406 134.681,2.064 136.078,7.087 143.125 C 9.169 146.047,11.637 149.516,12.572 150.833 C 16.832 156.842,23.479 159.122,35.057 158.550 C 50.707 157.776,61.771 151.217,83.221 130.000 C 100.504 112.905,101.464 110.779,95.206 103.448 C 86.502 93.252,78.671 95.525,52.995 115.700 C 39.522 126.286,29.274 129.841,20.766 126.879 C 14.589 124.729,14.037 122.643,16.866 112.151 C 26.075 77.998,58.264 35.718,74.552 36.379 L 79.063 36.563 78.894 38.665 C 78.760 40.341,78.921 40.693,79.690 40.398 C 80.489 40.091,80.536 40.248,79.966 41.313 C 76.991 46.873,84.816 45.133,95.000 37.969 C 100.664 33.985,101.042 32.799,97.941 28.722 C 96.777 27.190,94.121 23.406,92.040 20.313 C 83.456 7.553,76.973 3.375,70.938 6.711 M352.142 6.801 C 347.165 7.594,344.878 8.247,344.001 9.124 C 343.330 9.795,340.749 11.986,338.265 13.993 C 333.970 17.463,333.014 18.846,334.344 19.668 C 334.680 19.876,334.353 21.025,333.590 22.318 C 332.782 23.688,332.508 24.690,332.906 24.823 C 334.142 25.235,332.946 28.416,328.709 35.994 C 306.368 75.945,301.044 92.729,298.889 130.000 L 298.438 137.813 294.055 138.750 C 288.790 139.876,288.125 140.260,288.125 142.173 C 288.125 144.964,288.751 145.622,291.473 145.690 L 294.063 145.754 291.719 146.377 C 289.682 146.918,288.324 148.750,289.961 148.750 C 290.283 148.750,290.387 149.731,290.193 150.929 C 289.918 152.625,290.178 153.561,291.364 155.148 C 292.203 156.270,293.267 158.125,293.730 159.271 C 294.815 161.963,296.759 162.692,300.859 161.945 C 303.026 161.550,304.322 161.575,304.864 162.023 C 305.835 162.827,309.489 161.843,313.989 159.565 C 315.668 158.715,320.170 156.941,323.995 155.622 C 344.931 148.403,367.132 135.056,378.825 122.660 C 396.030 104.421,399.036 80.656,385.080 73.218 C 379.994 70.507,379.982 70.805,385.417 64.899 C 401.359 47.578,404.115 32.374,394.061 17.227 C 387.637 7.549,371.943 3.646,352.142 6.801 M290.787 8.430 C 289.451 9.010,288.408 10.120,287.727 11.686 C 287.158 12.993,284.777 18.141,282.437 23.125 C 280.096 28.109,276.328 36.530,274.064 41.837 C 266.260 60.134,260.916 69.722,243.308 97.022 C 231.719 114.990,223.317 125.989,222.096 124.788 C 219.385 122.123,224.846 90.007,232.156 65.625 C 242.464 31.248,242.824 25.529,234.981 20.812 C 230.816 18.306,229.713 18.249,228.342 20.469 C 227.758 21.414,226.077 23.453,224.605 25.000 C 220.765 29.038,215.906 41.174,210.716 59.688 C 203.080 86.932,201.910 124.301,208.358 135.000 C 209.498 136.891,211.347 140.070,212.467 142.064 C 217.701 151.381,238.400 157.481,248.284 152.620 C 254.404 149.610,264.349 139.355,267.811 132.483 C 268.759 130.602,271.780 125.030,274.524 120.102 C 284.236 102.659,290.974 86.479,297.729 64.375 C 299.987 56.984,303.263 46.719,305.007 41.563 C 312.795 18.545,312.879 17.835,308.388 13.126 C 303.091 7.574,296.687 5.865,290.787 8.430 M382.188 25.643 C 389.710 29.369,374.650 53.531,357.801 64.768 C 353.585 67.580,348.420 68.438,349.291 66.181 C 350.516 63.010,355.012 53.069,357.073 48.977 C 360.912 41.351,361.023 40.466,359.101 32.794 C 358.177 29.102,357.649 25.854,357.929 25.578 C 359.338 24.186,379.355 24.240,382.188 25.643 M371.511 89.754 C 374.269 90.813,370.506 99.186,364.244 105.926 C 356.579 114.175,334.580 126.875,327.956 126.875 C 326.241 126.875,326.663 125.142,330.772 115.313 C 332.640 110.844,334.797 105.109,335.566 102.569 C 337.244 97.024,338.139 96.149,345.014 93.322 C 351.860 90.507,367.860 88.353,371.511 89.754 " stroke="none" fill="#181818" fill-rule="evenodd"></path></g></svg>