<?xml version="1.0" encoding="iso-8859-1"?>
<!-- Generator: Adobe Illustrator 21.0.0, SVG Export Plug-In . SVG Version: 6.00 Build 0)  -->
<svg xmlns="http://www.w3.org/2000/svg" xmlns:xlink="http://www.w3.org/1999/xlink" version="1.1" id="Capa_1" x="0px" y="0px" viewBox="0 0 511.729 511.729" style="enable-background:new 0 0 511.729 511.729;" xml:space="preserve" width="512" height="512">
<g>
	<path d="M502.36,496.729h-47.78v-71c0-9.674-15-9.674-15,0v70.729h-67.704V284.76c0-4.142-3.357-7.5-7.5-7.5H147.353   c-4.143,0-7.5,3.358-7.5,7.5v46.968c0,9.674,15,9.674,15,0V292.26h81.909l-54.591,54.59c-6.841,6.841,3.765,17.446,10.607,10.606   l55.586-55.585v45.228c-1.09,0.354-2.118,0.957-2.984,1.823l-90.527,90.526v-72.721c0-9.674-15-9.674-15,0v129.729H72.148V106.871   h49.576v71.835c0,4.142,3.357,7.5,7.5,7.5h253.279c4.143,0,7.5-3.358,7.5-7.5v-71.835h49.576v284.857c0,9.674,15,9.674,15,0V99.371   c0-4.142-3.357-7.5-7.5-7.5h-57.076V7.5c0-4.142-3.357-7.5-7.5-7.5h-174.64c-9.675,0-9.675,15,0,15h167.14v156.206H136.725V15   h33.14c9.675,0,9.675-15,0-15h-40.64c-4.143,0-7.5,3.358-7.5,7.5v84.371H64.648c-4.143,0-7.5,3.358-7.5,7.5v397.357H9.368   c-9.675,0-9.675,15,0,15H502.36C512.035,511.729,512.035,496.729,502.36,496.729z M268.272,496.457l57.658-57.659   c6.841-6.841-3.766-17.446-10.607-10.606l-51.959,51.959v-44.067l93.512-93.512v153.885H268.272z M356.876,322.331   c-0.982,0.364-1.906,0.933-2.695,1.722l-90.816,90.817V292.26h93.512V322.331z M154.853,460.663l93.512-93.511v129.305h-93.512   V460.663z"/>
	<path d="M179.703,222.9c-9.675,0-9.675,15,0,15h153.358c9.674,0,9.674-15,0-15H179.703z"/>
	<path d="M157.706,68.61c-4.143,0-7.5,3.358-7.5,7.5v37.577c0,4.142,3.357,7.5,7.5,7.5h21.034l0.007,11.076   c0.003,4.14,3.359,7.495,7.5,7.495h29.249c1.99,0,3.899-0.791,5.306-2.199c1.407-1.408,2.196-3.317,2.194-5.308l-0.029-31.44   l65.809,0.134l0.029,31.413c0.004,4.14,3.36,7.493,7.5,7.493h29.228c1.99,0,3.898-0.791,5.305-2.198   c1.407-1.408,2.196-3.316,2.195-5.307l-0.007-11.16h20.998c4.143,0,7.5-3.358,7.5-7.5V76.11c0-4.142-3.357-7.5-7.5-7.5h-21.031   l-0.01-14.667c-0.003-4.14-3.359-7.495-7.5-7.495h-29.249c-1.99,0-3.899,0.791-5.306,2.199c-1.407,1.408-2.196,3.317-2.194,5.308   l0.03,31.99l-65.809-0.134l-0.03-31.963c-0.004-4.14-3.36-7.493-7.5-7.493h-29.228c-1.99,0-3.898,0.791-5.305,2.198   c-1.407,1.408-2.196,3.317-2.195,5.307l0.01,14.751H157.706z M346.522,83.61v22.577h-13.507l-0.014-22.577H346.522z    M317.986,61.448l0.009,13.261c-0.086,0.454-0.135,0.922-0.135,1.401c0,0.484,0.05,0.955,0.137,1.413l0.022,34.624   c-0.104,0.497-0.16,1.012-0.16,1.54c0,0.531,0.057,1.048,0.162,1.548l0.006,9.617h-14.229l-0.059-63.404H317.986z M165.206,106.188   V83.61h13.51l0.015,22.577H165.206z M207.931,61.354l0.059,63.404h-14.247l-0.006-9.685c0.084-0.45,0.133-0.912,0.133-1.386   c0-0.478-0.049-0.945-0.135-1.398l-0.022-34.648c0.103-0.494,0.157-1.006,0.157-1.531c0-0.528-0.056-1.042-0.159-1.539   l-0.009-13.217H207.931z"/>
</g>















</svg>
