<?xml version="1.0" standalone="no"?>
<!DOCTYPE svg PUBLIC "-//W3C//DTD SVG 20010904//EN"
 "http://www.w3.org/TR/2001/REC-SVG-20010904/DTD/svg10.dtd">
<svg version="1.0" xmlns="http://www.w3.org/2000/svg"
 width="826.000000pt" height="882.000000pt" viewBox="0 0 826.000000 882.000000"
 preserveAspectRatio="xMidYMid meet">
<metadata>
Created by potrace 1.15, written by Peter Selinger 2001-2017
</metadata>
<g transform="translate(0.000000,882.000000) scale(0.100000,-0.100000)"
fill="#000000" stroke="none">
<path fill="#e9343b" d="M4052 8797 c-12 -14 -27 -49 -107 -237 -218 -515 -256 -606 -403
-956 -44 -105 -87 -206 -95 -225 -13 -28 -298 -703 -388 -919 -41 -97 -235
-560 -286 -680 -24 -58 -50 -118 -56 -134 -11 -26 -27 -33 -173 -81 -444 -145
-884 -357 -1291 -622 -62 -40 -113 -75 -113 -78 0 -7 181 -275 186 -275 3 0
69 42 147 94 987 651 2210 911 3377 720 651 -107 1274 -348 1923 -743 l160
-98 95 140 c105 156 103 144 26 188 -16 9 -76 45 -134 80 -384 234 -822 438
-1215 568 -77 26 -145 50 -151 54 -6 3 -28 46 -49 94 -21 49 -46 106 -56 128
-9 22 -43 97 -73 168 -51 116 -115 262 -201 457 -36 82 -176 402 -262 600 -69
156 -102 231 -196 445 -76 171 -330 751 -394 900 -19 44 -47 107 -62 140 -15
33 -45 102 -67 153 -21 51 -47 102 -57 113 -20 22 -69 25 -85 6z m128 -1812
c35 -77 80 -178 100 -225 41 -93 116 -260 147 -330 204 -449 294 -652 290
-657 -2 -2 -69 3 -148 12 -284 30 -771 30 -996 -1 -32 -5 -43 -3 -43 7 0 11
207 508 300 719 16 36 72 166 124 290 135 321 146 344 155 334 5 -5 37 -72 71
-149z"/>
<path fill="#e9343b" d="M389 5416 l-167 -112 115 -175 c63 -95 199 -302 302 -459 104 -157
277 -420 386 -585 341 -517 347 -525 359 -518 46 28 326 216 326 219 0 5 -60
98 -255 394 -182 276 -357 542 -572 868 -280 425 -314 477 -321 478 -4 1 -82
-49 -173 -110z"/>
<path fill="#e9343b" d="M7551 5312 c-200 -304 -440 -667 -617 -937 -83 -127 -204 -309 -268
-406 -64 -98 -116 -179 -116 -182 0 -4 66 -50 148 -103 81 -53 157 -103 169
-111 21 -14 25 -10 116 129 52 79 170 258 262 398 93 140 214 325 270 410 56
85 195 296 308 468 114 172 207 317 207 322 0 7 -265 188 -325 223 -6 3 -75
-92 -154 -211z"/>
<path fill="#ffffff" d="M3059 5225 c-160 -29 -386 -84 -420 -101 -20 -10 -66 -97 -227 -436
-110 -233 -228 -481 -262 -553 -34 -71 -97 -204 -140 -295 -114 -242 -161
-341 -272 -575 -187 -394 -218 -461 -218 -482 0 -27 45 -63 78 -63 14 0 53 15
86 34 34 18 190 102 348 185 158 83 320 168 360 190 81 43 573 302 738 389 58
30 175 92 260 137 298 158 613 324 679 357 25 14 -79 65 1421 -693 1101 -556
1148 -579 1179 -579 35 0 71 33 71 65 0 12 -81 185 -181 386 -100 200 -206
415 -236 478 -30 63 -198 403 -373 757 -221 446 -324 646 -340 654 -29 15 -83
31 -273 79 -288 73 -342 75 -368 17 -10 -21 21 -88 285 -612 162 -323 293
-590 291 -593 -3 -2 -31 8 -62 24 -129 63 -550 269 -738 360 -110 53 -298 144
-418 202 -132 64 -230 106 -247 105 -26 -1 -78 -26 -375 -182 -49 -26 -171
-89 -270 -140 -99 -51 -211 -109 -250 -130 -195 -104 -467 -241 -471 -237 -3
2 22 59 56 125 33 67 60 123 60 126 0 2 45 97 100 211 55 114 100 208 100 210
0 1 34 74 76 161 134 278 174 366 174 381 0 21 -50 63 -74 62 -12 0 -78 -11
-147 -24z"/>
<path fill="#e9343b" d="M132 4939 c-68 -44 -122 -83 -120 -87 2 -4 48 -74 102 -157 54 -82
180 -274 280 -425 100 -151 244 -370 321 -487 77 -116 145 -219 150 -229 9
-14 26 -6 137 67 70 46 128 87 128 91 0 4 -31 54 -68 110 -175 262 -721 1093
-757 1150 -17 27 -34 48 -40 48 -5 0 -65 -36 -133 -81z"/>
<path fill="#e9343b" d="M7955 4971 c-34 -55 -423 -645 -662 -1007 -90 -134 -163 -248 -163
-252 0 -8 239 -167 251 -167 7 0 52 66 303 448 285 433 405 616 484 735 45 68
82 125 82 127 0 8 -240 165 -252 165 -7 0 -26 -22 -43 -49z"/>
<path fill="#e9343b" d="M212 4228 c-47 -51 -56 -138 -19 -202 38 -68 138 -104 211 -76 14 5
26 13 26 18 0 14 -179 282 -188 282 -5 0 -18 -10 -30 -22z"/>
<path fill="#e9343b" d="M7924 4120 c-46 -71 -87 -136 -90 -144 -8 -20 33 -36 89 -36 119 1
201 130 153 243 -14 35 -42 67 -57 67 -5 0 -48 -58 -95 -130z"/>
<path fill="#ffffff" d="M1212 1733 c-22 -65 -77 -224 -121 -353 -45 -129 -98 -283 -118 -342
l-37 -108 -33 0 -33 0 0 -85 0 -85 165 0 165 0 0 85 0 85 -50 0 c-27 0 -50 3
-50 8 0 4 13 43 29 87 l29 80 180 3 180 2 26 -72 c37 -106 38 -102 -18 -108
l-49 -5 0 -80 0 -80 166 -3 167 -2 0 85 0 85 -33 0 -33 0 -43 123 c-23 67 -60
172 -81 232 -21 61 -74 212 -117 337 l-78 228 -87 0 -86 0 -40 -117z m192
-288 c31 -94 56 -176 56 -183 0 -9 -30 -12 -118 -12 -65 0 -121 3 -124 6 -3 3
22 88 56 189 33 101 64 181 67 177 4 -4 32 -84 63 -177z"/>
<path fill="#ffffff" d="M1820 1690 l0 -160 85 0 85 0 0 75 0 76 93 -3 92 -3 3 -372 2 -373
-50 0 -50 0 0 -85 0 -85 185 0 185 0 0 85 0 85 -45 0 -45 0 0 375 0 375 95 0
95 0 0 -75 0 -75 80 0 80 0 0 160 0 160 -445 0 -445 0 0 -160z"/>
<path fill="#ffffff" d="M2790 1766 l0 -85 48 -3 47 -3 3 -342 2 -341 -31 -31 c-26 -26 -38
-31 -80 -31 l-49 0 0 -85 0 -85 95 0 95 0 75 74 75 74 0 386 0 386 150 0 150
0 0 -375 0 -375 -50 0 -50 0 0 -85 0 -85 190 0 190 0 0 85 0 85 -45 0 -45 0 0
375 0 375 40 0 40 0 0 85 0 85 -425 0 -425 0 0 -84z"/>
<path fill="#ffffff" d="M3720 1765 l0 -85 45 0 45 0 0 -375 0 -375 -45 0 -45 0 0 -85 0 -85
373 2 372 3 0 155 0 155 -85 0 -85 0 -3 -72 -3 -73 -149 0 -150 0 0 160 0 160
130 0 130 0 0 70 0 70 -130 0 -130 0 0 145 0 145 150 0 150 0 0 -75 0 -76 88
3 87 3 3 158 3 157 -376 0 -375 0 0 -85z"/>
<path fill="#ffffff" d="M4538 1700 c-2 -83 -1 -155 0 -160 2 -6 39 -10 82 -10 l79 0 3 73 3
72 93 3 92 3 0 -375 0 -375 -47 -3 -48 -3 0 -80 0 -80 185 0 185 0 0 80 0 80
-47 3 -48 3 0 375 0 375 93 -3 92 -3 3 -73 3 -73 82 3 82 3 0 155 0 155 -442
3 -442 2 -3 -150z"/>
<path fill="#ffffff" d="M5477 1843 c-4 -3 -7 -41 -7 -84 l0 -78 48 -3 47 -3 0 -370 0 -370
-44 -5 -45 -5 1 -80 1 -80 181 -3 181 -2 0 84 0 85 -42 3 -43 3 -3 46 c-3 42
0 49 35 79 21 18 100 92 176 164 76 72 143 133 148 134 6 2 8 -79 7 -210 l-3
-213 -42 -3 -43 -3 0 -85 0 -84 183 2 182 3 0 80 0 80 -47 3 -48 3 0 375 0
374 50 0 51 0 -3 83 -3 82 -182 3 -183 2 0 -84 0 -85 43 -3 42 -3 3 -45 3 -45
-177 -165 c-97 -91 -181 -167 -186 -168 -5 -2 -7 89 -6 210 l3 213 43 3 42 3
0 85 0 84 -178 0 c-98 0 -182 -3 -185 -7z"/>
<path fill="#ffffff" d="M6460 1765 l0 -85 44 0 c24 0 46 -4 48 -10 2 -5 2 -174 0 -375 l-2
-365 -45 0 -45 0 0 -85 0 -85 180 0 180 0 0 85 0 85 -40 0 -40 0 1 133 0 132
58 49 c31 27 61 51 66 53 6 1 45 -55 89 -125 43 -70 94 -151 112 -179 19 -29
34 -55 34 -58 0 -3 -20 -5 -45 -5 l-45 0 0 -85 0 -85 190 0 190 0 0 85 0 85
-44 0 c-42 0 -46 2 -78 53 -29 44 -251 404 -266 431 -2 4 0 11 5 15 6 3 48 40
94 81 200 180 186 170 229 170 l40 0 0 85 0 85 -180 0 -180 0 0 -85 0 -85 30
0 c17 0 30 -4 30 -9 0 -9 -304 -283 -321 -289 -5 -2 -9 62 -9 147 l0 151 40 0
40 0 0 85 0 85 -180 0 -180 0 0 -85z"/>
</g>
</svg>
