<svg id="svg" xmlns="http://www.w3.org/2000/svg" xmlns:xlink="http://www.w3.org/1999/xlink" width="400" height="99.0757855822551" viewBox="0, 0, 400,99.0757855822551"><g id="svgg"><path id="path0" d="M178.723 0.474 C 178.612 0.763,178.549 1.148,178.584 1.331 C 178.751 2.226,178.477 2.588,177.634 2.588 C 177.105 2.588,176.710 2.801,176.710 3.087 C 176.710 3.361,176.197 4.294,175.570 5.160 C 174.943 6.025,173.875 8.030,173.197 9.614 C 171.762 12.967,170.227 15.413,169.367 15.718 C 169.034 15.836,168.262 16.964,167.652 18.225 C 167.043 19.486,166.177 20.815,165.728 21.178 C 164.736 21.983,162.060 26.408,159.003 32.303 C 157.750 34.719,156.397 37.112,155.996 37.621 C 155.596 38.130,155.268 38.709,155.268 38.906 C 155.268 39.104,154.791 39.871,154.208 40.612 C 153.625 41.353,152.770 42.708,152.307 43.623 C 151.845 44.538,150.049 47.449,148.317 50.092 C 146.585 52.736,143.475 57.726,141.405 61.183 C 139.335 64.640,136.658 68.965,135.457 70.795 L 133.272 74.122 133.160 71.741 C 133.070 69.833,133.544 65.544,134.695 57.856 C 134.726 57.652,134.883 57.388,135.046 57.268 C 135.390 57.015,137.593 48.375,137.370 48.152 C 137.287 48.070,137.533 47.294,137.916 46.429 C 138.913 44.175,141.188 34.745,141.616 31.091 C 142.019 27.649,141.548 26.359,139.412 25.061 C 134.044 21.798,132.115 20.748,129.575 19.708 C 125.168 17.903,125.287 17.837,124.829 22.366 C 124.405 26.572,123.285 32.692,121.819 38.817 C 116.103 62.703,115.515 79.482,120.183 85.466 C 120.868 86.343,121.136 86.829,120.779 86.546 C 118.751 84.937,119.803 87.607,121.962 89.548 C 124.760 92.064,138.825 94.640,141.615 93.147 C 141.981 92.951,142.604 92.791,143.000 92.791 C 143.546 92.791,143.822 92.384,144.144 91.106 C 144.378 90.180,144.896 88.810,145.297 88.062 C 145.698 87.314,146.026 86.515,146.026 86.287 C 146.026 85.007,153.326 71.890,162.914 55.942 C 167.264 48.705,171.534 40.117,171.534 38.603 C 171.534 38.318,173.265 34.714,175.381 30.594 C 177.496 26.474,179.588 22.105,180.030 20.886 C 183.008 12.662,184.335 8.011,184.054 6.778 C 184.016 6.608,184.185 5.981,184.430 5.385 C 184.806 4.471,184.785 4.248,184.297 3.976 C 183.979 3.797,183.796 3.525,183.891 3.371 C 183.987 3.217,183.574 3.163,182.974 3.251 C 181.999 3.394,181.820 3.259,181.291 1.983 C 180.594 0.301,180.782 0.520,179.758 0.205 C 179.194 0.032,178.859 0.119,178.723 0.474 M332.614 3.725 C 330.617 4.746,329.451 5.615,328.796 6.572 C 326.540 9.864,325.011 12.387,321.799 18.115 C 319.918 21.470,317.264 26.128,315.902 28.466 C 314.539 30.804,313.093 33.549,312.689 34.565 C 311.458 37.656,311.289 37.667,310.112 34.737 C 309.532 33.294,309.057 31.786,309.057 31.387 C 309.057 26.734,302.806 22.760,298.152 24.452 C 294.903 25.634,294.395 26.279,292.273 31.918 C 291.778 33.232,290.194 36.786,288.753 39.815 C 287.312 42.845,286.167 45.731,286.208 46.229 C 286.249 46.727,285.647 48.466,284.871 50.092 C 284.095 51.719,283.158 53.882,282.790 54.898 C 280.670 60.752,273.940 75.336,273.938 74.083 C 273.934 72.115,287.215 22.822,289.646 15.781 C 290.514 13.266,290.515 13.259,289.813 11.714 C 289.427 10.863,289.107 9.574,289.102 8.850 C 289.094 7.483,288.967 7.345,285.397 4.823 C 282.192 2.558,276.895 3.389,276.895 6.156 C 276.895 6.855,276.603 7.644,276.203 8.026 C 275.671 8.535,275.417 9.628,275.104 12.754 C 274.880 14.991,274.440 19.399,274.125 22.551 C 272.614 37.690,271.042 45.687,265.440 66.728 C 261.620 81.076,260.601 88.429,261.736 93.438 C 262.062 94.876,262.449 95.749,262.760 95.749 C 263.035 95.749,263.169 95.896,263.057 96.076 C 262.548 96.901,266.213 97.975,269.367 97.926 C 270.412 97.910,271.616 98.084,272.044 98.312 C 273.148 98.903,274.802 97.965,276.229 95.941 C 277.483 94.161,281.277 85.785,286.446 73.383 C 290.193 64.392,299.355 45.257,299.732 45.634 C 299.823 45.726,299.721 49.178,299.504 53.307 C 299.287 57.435,299.112 61.562,299.115 62.477 C 299.118 63.392,298.778 67.711,298.359 72.075 C 297.260 83.520,297.400 87.049,299.015 88.664 C 299.480 89.129,299.815 89.929,299.815 90.573 C 299.815 91.183,299.982 91.682,300.185 91.682 C 300.388 91.682,300.555 92.078,300.555 92.561 C 300.555 93.924,301.177 94.155,305.568 94.422 C 311.464 94.780,311.377 94.879,316.400 82.070 C 318.034 77.902,319.707 73.803,320.118 72.961 C 320.529 72.119,321.354 70.122,321.952 68.524 C 322.549 66.927,324.200 62.874,325.621 59.519 C 331.315 46.076,333.442 40.901,336.181 33.826 C 337.756 29.760,339.201 26.144,339.393 25.791 C 339.584 25.438,339.741 24.791,339.741 24.353 C 339.741 23.915,340.230 21.958,340.827 20.004 C 343.451 11.420,343.204 7.051,339.942 4.325 C 336.939 1.815,336.432 1.773,332.614 3.725 M37.523 5.741 C 23.944 9.148,17.231 14.182,18.443 20.050 L 18.899 22.258 16.870 26.563 C 7.583 46.268,4.509 54.153,2.221 64.140 C 0.016 73.767,-0.405 78.087,0.401 82.810 C 0.592 83.928,0.853 85.655,0.980 86.647 C 1.145 87.925,1.400 88.500,1.857 88.620 C 2.307 88.737,2.570 89.311,2.731 90.524 C 3.023 92.726,4.717 94.384,5.329 93.068 C 5.550 92.594,5.388 93.897,4.962 96.026 C 4.632 97.680,5.342 97.578,6.259 95.841 C 6.662 95.079,6.999 94.590,7.008 94.756 C 7.017 94.922,6.855 95.374,6.648 95.761 C 6.205 96.589,7.159 97.967,8.176 97.967 C 8.515 97.967,8.889 98.216,9.006 98.521 C 9.129 98.840,9.681 99.076,10.307 99.076 C 12.497 99.076,14.516 95.649,16.606 88.389 C 17.866 84.012,20.604 76.070,22.195 72.181 C 22.382 71.724,22.805 71.349,23.135 71.349 C 24.048 71.349,34.801 78.642,39.187 82.235 C 41.322 83.984,44.649 86.684,46.580 88.235 C 48.512 89.786,50.468 91.440,50.927 91.910 C 53.212 94.251,54.744 90.192,53.935 83.938 C 53.710 82.199,53.296 80.111,53.015 79.298 C 51.877 76.006,39.207 60.762,37.290 60.378 C 35.580 60.037,36.030 59.669,39.464 58.599 C 56.833 53.190,66.161 41.499,66.172 25.124 C 66.178 15.758,60.682 8.407,51.941 6.090 C 48.718 5.236,40.346 5.033,37.523 5.741 M195.922 6.397 C 193.137 7.181,188.564 11.589,186.969 15.027 C 186.511 16.013,185.745 17.370,185.266 18.042 C 184.461 19.170,184.440 19.313,184.988 19.920 C 185.637 20.637,185.769 21.831,185.259 22.384 C 184.629 23.070,184.506 25.812,185.096 26.038 C 186.178 26.453,187.383 26.232,188.964 25.328 C 193.317 22.840,193.546 24.185,190.008 31.453 C 186.848 37.947,182.714 48.096,180.343 55.187 C 178.611 60.364,176.603 72.730,177.312 73.853 C 177.931 74.834,177.363 75.582,170.058 83.409 C 168.112 85.495,167.925 86.839,169.414 88.027 C 170.331 88.758,170.035 89.329,168.572 89.650 C 167.260 89.938,167.149 90.384,168.299 90.754 C 169.004 90.980,169.032 91.048,168.484 91.194 C 165.689 91.940,169.826 93.039,176.825 93.409 L 180.961 93.627 186.876 91.706 C 194.154 89.341,198.293 88.328,199.600 88.589 C 201.397 88.949,201.640 88.134,200.946 84.067 C 199.948 78.208,198.601 76.481,194.646 75.987 C 191.106 75.545,191.142 75.757,193.300 68.181 C 198.781 48.936,204.748 33.194,210.162 23.694 C 210.673 22.798,211.091 21.614,211.091 21.062 C 211.091 19.740,213.366 19.048,217.652 19.068 L 220.702 19.082 220.702 18.048 C 220.702 13.625,216.727 9.303,210.683 7.154 C 207.399 5.986,198.924 5.551,195.922 6.397 M378.780 8.699 C 373.472 9.590,365.837 11.683,364.695 12.559 C 364.492 12.715,362.219 13.928,359.645 15.253 C 346.621 21.961,342.774 27.365,343.792 37.523 C 344.963 49.207,344.272 48.532,365.250 58.453 C 371.875 61.586,375.282 63.601,375.147 64.305 C 375.001 65.065,369.050 68.505,365.487 69.890 C 359.903 72.061,353.922 73.288,339.630 75.193 C 333.815 75.968,332.339 77.615,331.480 84.288 C 330.225 94.029,330.215 94.018,339.575 93.510 C 364.879 92.137,381.130 83.989,385.997 70.235 C 388.540 63.050,388.533 58.127,385.977 53.974 C 385.413 53.059,384.743 51.774,384.487 51.118 C 383.321 48.131,375.841 43.645,371.996 43.627 C 371.534 43.625,371.165 43.394,371.165 43.108 C 371.165 42.424,370.345 42.144,368.340 42.144 C 367.429 42.144,366.777 41.995,366.889 41.813 C 367.126 41.429,366.258 41.032,364.740 40.830 C 364.155 40.752,363.288 40.434,362.812 40.122 C 362.337 39.811,361.544 39.556,361.051 39.556 C 360.557 39.556,360.066 39.330,359.960 39.054 C 359.854 38.777,359.045 38.369,358.161 38.147 C 356.052 37.616,353.050 35.616,353.050 34.742 C 353.050 33.848,355.926 32.504,364.363 29.453 C 370.187 27.348,373.736 26.344,384.288 23.817 C 385.712 23.476,388.623 23.115,390.758 23.016 L 394.640 22.834 396.763 20.650 C 399.408 17.928,400.345 16.566,399.715 16.356 C 399.115 16.156,399.122 13.420,399.723 13.205 C 399.977 13.114,400.068 12.914,399.925 12.761 C 399.782 12.607,399.396 12.751,399.067 13.080 C 397.741 14.405,397.003 13.696,396.911 11.008 C 396.866 9.676,396.721 9.406,395.933 9.187 C 391.973 8.087,383.810 7.855,378.780 8.699 M96.893 11.366 C 96.547 11.736,96.296 11.761,95.934 11.461 C 95.463 11.070,92.115 12.200,90.198 13.398 C 89.298 13.960,86.658 13.174,86.130 12.187 C 85.623 11.240,85.028 11.257,85.028 12.218 C 85.028 13.268,84.021 15.111,82.759 16.373 C 82.177 16.956,81.701 17.327,81.701 17.198 C 81.701 17.069,81.243 17.221,80.684 17.535 C 80.125 17.849,78.711 18.452,77.542 18.876 C 75.642 19.565,75.416 19.757,75.416 20.684 C 75.416 21.254,75.166 21.928,74.861 22.181 C 74.129 22.789,74.160 23.203,74.954 23.383 C 75.463 23.499,75.346 23.682,74.402 24.242 C 72.831 25.175,72.880 25.340,74.876 25.843 C 77.547 26.516,77.516 26.825,73.465 39.632 C 70.561 48.813,69.486 51.583,65.820 59.335 C 60.817 69.914,60.539 78.549,64.992 85.067 C 71.193 94.145,78.586 95.798,88.178 90.254 C 89.808 89.311,91.805 88.209,92.614 87.804 C 93.423 87.399,94.168 86.980,94.270 86.873 C 94.372 86.766,96.201 85.880,98.336 84.904 C 100.471 83.929,102.800 82.822,103.512 82.444 C 106.385 80.919,108.969 79.727,110.721 79.116 C 112.875 78.365,112.975 77.754,111.472 74.502 C 109.101 69.368,103.253 66.919,98.237 68.959 C 96.970 69.474,93.771 70.534,91.128 71.314 C 88.484 72.095,84.092 73.587,81.367 74.629 C 74.303 77.332,74.314 77.347,77.620 69.727 C 81.892 59.879,82.702 58.462,84.213 58.201 C 89.405 57.302,95.835 55.982,99.516 55.058 C 101.893 54.462,104.347 53.974,104.969 53.974 C 106.307 53.974,106.375 53.560,105.360 51.571 C 104.954 50.774,104.621 49.838,104.621 49.491 C 104.621 47.252,99.362 44.684,96.606 45.577 C 93.830 46.475,92.171 46.703,91.876 46.226 C 91.706 45.950,91.050 45.890,89.972 46.052 L 88.328 46.299 89.307 43.759 C 91.680 37.606,92.782 33.998,93.112 31.301 C 93.542 27.789,92.464 28.583,100.750 25.678 C 110.133 22.389,113.752 21.387,115.247 21.668 C 116.670 21.935,116.656 22.024,115.694 18.794 C 114.301 14.116,110.640 11.460,105.586 11.460 C 103.922 11.460,102.773 11.306,102.773 11.084 C 102.773 10.504,97.459 10.759,96.893 11.366 M244.397 11.366 C 244.051 11.736,243.800 11.761,243.438 11.461 C 242.968 11.070,239.620 12.200,237.702 13.398 C 236.802 13.960,234.163 13.174,233.634 12.187 C 233.128 11.240,232.532 11.257,232.532 12.218 C 232.532 13.268,231.526 15.111,230.264 16.373 C 229.682 16.956,229.205 17.327,229.205 17.198 C 229.205 17.069,228.748 17.221,228.189 17.535 C 227.629 17.849,226.215 18.452,225.046 18.876 C 223.147 19.565,222.921 19.757,222.921 20.684 C 222.921 21.254,222.671 21.928,222.366 22.181 C 221.633 22.789,221.665 23.203,222.458 23.383 C 222.968 23.499,222.850 23.682,221.906 24.242 C 220.335 25.175,220.384 25.340,222.381 25.843 C 225.052 26.516,225.020 26.825,220.970 39.632 C 218.066 48.813,216.991 51.583,213.325 59.335 C 208.322 69.914,208.044 78.549,212.497 85.067 C 218.698 94.145,226.090 95.798,235.682 90.254 C 237.313 89.311,239.309 88.209,240.118 87.804 C 240.928 87.399,241.673 86.980,241.774 86.873 C 241.876 86.766,243.706 85.880,245.841 84.904 C 247.976 83.929,250.305 82.822,251.017 82.444 C 253.890 80.919,256.473 79.727,258.226 79.116 C 260.380 78.365,260.479 77.754,258.977 74.502 C 256.605 69.368,250.758 66.919,245.741 68.959 C 244.475 69.474,241.275 70.534,238.632 71.314 C 235.989 72.095,231.597 73.587,228.872 74.629 C 221.808 77.332,221.819 77.347,225.125 69.727 C 229.397 59.879,230.207 58.462,231.718 58.201 C 236.910 57.302,243.340 55.982,247.021 55.058 C 249.398 54.462,251.852 53.974,252.474 53.974 C 253.812 53.974,253.879 53.560,252.865 51.571 C 252.458 50.774,252.126 49.838,252.126 49.491 C 252.126 47.252,246.867 44.684,244.111 45.577 C 241.335 46.475,239.676 46.703,239.381 46.226 C 239.211 45.950,238.555 45.890,237.477 46.052 L 235.833 46.299 236.812 43.759 C 239.185 37.606,240.287 33.998,240.617 31.301 C 241.046 27.789,239.969 28.583,248.254 25.678 C 257.638 22.389,261.257 21.387,262.751 21.668 C 264.174 21.935,264.160 22.024,263.198 18.794 C 261.805 14.116,258.145 11.460,253.091 11.460 C 251.427 11.460,250.277 11.306,250.277 11.084 C 250.277 10.504,244.964 10.759,244.397 11.366 M48.904 18.696 C 55.297 20.353,57.841 23.186,56.757 27.443 C 54.736 35.380,51.779 38.322,40.111 44.007 C 31.293 48.303,31.689 48.456,34.358 41.774 C 36.244 37.053,39.029 24.399,38.183 24.399 C 37.991 24.399,37.796 23.446,37.749 22.282 C 37.702 21.117,37.467 20.042,37.227 19.894 C 35.134 18.601,44.735 17.616,48.904 18.696 M53.067 41.747 C 52.950 41.936,52.150 42.619,51.289 43.265 L 49.723 44.440 51.386 42.934 C 53.088 41.392,53.439 41.144,53.067 41.747 M73.303 48.065 C 73.120 48.766,72.458 49.483,72.458 48.981 C 72.458 48.667,73.190 47.320,73.361 47.320 C 73.436 47.320,73.411 47.655,73.303 48.065 M220.808 48.065 C 220.625 48.766,219.963 49.483,219.963 48.981 C 219.963 48.667,220.695 47.320,220.866 47.320 C 220.941 47.320,220.915 47.655,220.808 48.065 M67.017 62.211 C 66.267 63.969,65.592 65.346,65.517 65.271 C 65.442 65.195,65.997 63.699,66.750 61.945 C 67.504 60.190,68.179 58.813,68.250 58.885 C 68.321 58.956,67.766 60.453,67.017 62.211 M214.521 62.211 C 213.772 63.969,213.097 65.346,213.022 65.271 C 212.946 65.195,213.502 63.699,214.255 61.945 C 215.009 60.190,215.683 58.813,215.755 58.885 C 215.826 58.956,215.271 60.453,214.521 62.211 M180.045 73.581 C 179.699 74.375,179.673 74.302,179.839 73.013 C 179.943 72.200,180.060 71.118,180.097 70.610 C 180.135 70.102,180.228 70.357,180.304 71.178 C 180.379 71.998,180.263 73.080,180.045 73.581 " stroke="none" fill="#d2d2d2" fill-rule="evenodd"></path></g></svg>