<?xml version="1.0" encoding="iso-8859-1"?>
<!-- Generator: Adobe Illustrator 21.0.0, SVG Export Plug-In . SVG Version: 6.00 Build 0)  -->
<svg xmlns="http://www.w3.org/2000/svg" xmlns:xlink="http://www.w3.org/1999/xlink" version="1.1" id="Capa_1" x="0px" y="0px" viewBox="0 0 511.188 511.188" style="enable-background:new 0 0 511.188 511.188;" xml:space="preserve" width="512" height="512">
<g>
	<path d="M144.272,275.107c3.461,2.275,8.112,1.313,10.386-2.15c5.784-8.803,8.841-19.045,8.841-29.618c0-29.775-24.224-54-54-54   s-54,24.225-54,54s24.224,54,54,54c5.898,0,16.896,0.059,20.113-5.952c3.061-5.72-2.537-12.614-8.787-10.716   c-3.655,1.106-7.466,1.668-11.326,1.668c-21.505,0-39-17.495-39-39s17.495-39,39-39s39,17.495,39,39   c0,7.638-2.205,15.031-6.377,21.382C139.848,268.182,140.811,272.831,144.272,275.107z"/>
	<path d="M488,398.838h-29.177v-16H481c37.392,0,37.392-58,0-58h-73c-9.675,0-9.675,15,0,15h73c18.052,0,18.052,28,0,28H371   c-18.052,0-18.052-28,0-28h5c9.675,0,9.675-15,0-15h-5c-37.392,0-37.392,58,0,58h22.177v16H351.84L218.728,250.992   c0.729-10.508-0.045-21.103-2.327-31.388l87.562,95.795c6.555,7.169,17.585-2.994,11.072-10.121   c-21.994-24.062-43.988-48.123-65.981-72.185c-13.388-14.647-26.776-29.294-40.164-43.94c-11.618-12.71-23.026-26.08-37.239-35.914   l50.848-46.295v35.883c0,4.143,3.358,7.5,7.5,7.5h19.75c15.025,0,27.25-12.225,27.25-27.25V56.6c0-15.025-12.225-27.25-27.25-27.25   H230c-4.142,0-7.5,3.357-7.5,7.5v49.808l-64.36,58.597c-14.663-7.301-31.179-11.416-48.64-11.416   c-17.584,0-34.38,4.044-49.924,12.019c-8.607,4.416-1.757,17.769,6.848,13.346c13.404-6.877,27.897-10.364,43.076-10.364   c52.107,0,94.5,42.393,94.5,94.5s-42.393,94.5-94.5,94.5S15,295.446,15,243.338c0-23.048,8.389-45.246,23.623-62.505   c6.402-7.253-4.845-17.18-11.246-9.926C9.723,190.909,0,216.632,0,243.338c0,29.903,12.053,57.04,31.551,76.821l58.578,146.679   H53.5c-9.675,0-9.675,15,0,15h99c9.674,0,9.674-15,0-15h-40.658l50.609-127.683c15.797-8.765,29.212-21.319,39.005-36.432   l127.47,141.632c1.422,1.58,3.448,2.482,5.574,2.482H419v20h-43.5c-9.675,0-9.675,15,0,15h105c9.675,0,9.675-15,0-15H434v-20h54   C518.872,446.838,518.963,398.838,488,398.838z M237.5,44.35h12.25c6.755,0,12.25,5.495,12.25,12.25v66.477   c0,6.755-5.495,12.25-12.25,12.25H237.5V44.35z M100.974,453.55L54.924,338.242C71,347.523,89.641,352.838,109.5,352.838   c11.669,0,22.914-1.842,33.468-5.238L100.974,453.55z M408.177,382.838h35.646v16h-35.646V382.838z M488,431.838H337.84   L209.106,288.8c2.742-5.983,4.958-12.254,6.594-18.754l127.226,141.311c1.423,1.579,3.448,2.481,5.574,2.481H488   C499.553,413.838,499.57,431.838,488,431.838z"/>
</g>















</svg>
